<svg width="14" height="14" viewBox="0 0 14 14" fill="none" xmlns="http://www.w3.org/2000/svg">
<path d="M6.33848 7.9707L6.24907 7.75015L6.02852 7.66074L1.17227 5.69199L1.17231 5.69191L1.16286 5.68827C1.10432 5.66576 1.09464 5.64701 1.09302 5.64388C1.09295 5.64374 1.09289 5.64363 1.09284 5.64355C1.06186 5.58943 1.05469 5.55044 1.05469 5.51953C1.05469 5.49951 1.05907 5.46694 1.09205 5.41392C1.10108 5.39941 1.11929 5.37561 1.18037 5.35129L12.688 1.0781L12.6983 1.07426L12.7085 1.07001C12.7588 1.04908 12.7745 1.05556 12.7754 1.05594L12.7754 1.05596C12.8193 1.06791 12.8517 1.08706 12.8819 1.11728C12.9122 1.1475 12.9313 1.17995 12.9433 1.22378L12.9433 1.22383C12.9437 1.22477 12.9501 1.24047 12.9292 1.29069L12.925 1.30087L12.9211 1.31122L8.64749 12.82C8.62357 12.8811 8.60016 12.8987 8.58611 12.9074C8.53231 12.9408 8.50018 12.9446 8.48174 12.9445H8.47969C8.44964 12.9445 8.41088 12.9376 8.35642 12.9064C8.35632 12.9063 8.3562 12.9063 8.35605 12.9062C8.35255 12.9043 8.33336 12.8942 8.3104 12.835L8.31046 12.8349L8.30723 12.8269L6.33848 7.9707Z" stroke="#ffffff" stroke-width="1.125"/>
</svg>
