<svg width="16" height="16" viewBox="0 0 16 16" fill="none" xmlns="http://www.w3.org/2000/svg">
<path d="M7.99995 7.36369L8.97465 6.38899C8.57955 5.88859 8.26815 5.26759 8.01885 4.62139C7.70835 3.81409 7.48425 2.93209 7.32225 2.12209C7.29716 1.9963 7.27316 1.87029 7.25025 1.74409C6.00082 1.89215 4.82485 2.41272 3.87525 3.23809L7.99995 7.36369ZM9.61095 7.02529L8.63625 7.99999L12.7618 12.1256C13.5872 11.176 14.1077 10 14.2558 8.75059C14.1303 8.72795 14.0048 8.70425 13.8797 8.67949C13.0697 8.51749 12.1876 8.29249 11.3803 7.98199C10.7332 7.73359 10.1113 7.42129 9.61095 7.02529ZM14.2981 7.84429C14.2638 6.38276 13.7205 4.97904 12.7618 3.87529L10.2526 6.38359C10.6396 6.67159 11.1373 6.92449 11.7034 7.14229C12.4468 7.42849 13.2757 7.64089 14.056 7.79749L14.2981 7.84429ZM9.61635 5.74729L12.1255 3.23809C11.0218 2.27945 9.61808 1.73611 8.15655 1.70179L8.20425 1.94479C8.36085 2.72599 8.57325 3.55489 8.85945 4.29829C9.07635 4.86349 9.32835 5.36029 9.61635 5.74729ZM7.99995 8.63539L7.02705 9.60829C7.42305 10.1087 7.73445 10.7306 7.98375 11.3777C8.29425 12.185 8.51925 13.067 8.68125 13.877C8.70645 14.0048 8.73075 14.1308 8.75325 14.255C10.0017 14.1064 11.1767 13.5859 12.1255 12.761L7.99995 8.63539ZM6.38535 10.25L3.87435 12.761C4.97857 13.72 6.383 14.2634 7.84515 14.2973C7.83075 14.2163 7.81455 14.1353 7.79835 14.0534C7.64175 13.2722 7.42935 12.4442 7.14315 11.7008C6.92625 11.1347 6.67335 10.6379 6.38535 10.2509V10.25ZM5.74815 9.61459C5.36115 9.32659 4.86435 9.07459 4.29915 8.85679C3.55575 8.57059 2.72685 8.35729 1.94655 8.20159C1.86504 8.18522 1.78344 8.16931 1.70175 8.15389C1.73565 9.61604 2.27902 11.0205 3.23805 12.1247L5.74905 9.61369L5.74815 9.61459ZM6.38985 8.97199L7.36365 7.99999L3.23805 3.87439C2.41301 4.8235 1.89246 5.9988 1.74405 7.24759C1.86915 7.27009 1.99515 7.29439 2.12295 7.31959C2.93295 7.48159 3.81495 7.70659 4.62225 8.01709C5.26845 8.26549 5.89035 8.57779 6.38985 8.97289V8.97199ZM13.0912 13.0904C12.4242 13.7657 11.6302 14.3024 10.7549 14.6696C9.87965 15.0369 8.94041 15.2275 7.99122 15.2304C7.04203 15.2333 6.10162 15.0485 5.22412 14.6867C4.34661 14.3248 3.54931 13.793 2.8781 13.1218C2.20689 12.4507 1.67501 11.6534 1.31306 10.776C0.951109 9.89849 0.766236 8.9581 0.769075 8.00891C0.771914 7.05972 0.96241 6.12046 1.3296 5.24516C1.69679 4.36987 2.23343 3.57582 2.90865 2.90869C4.25895 1.55839 6.09034 0.799805 7.99995 0.799805C9.90956 0.799805 11.741 1.55839 13.0912 2.90869C14.4415 4.25899 15.2001 6.09038 15.2001 7.99999C15.2001 9.9096 14.4415 11.7401 13.0912 13.0904Z" fill="#555555"/>
</svg>
