<svg width="24" height="24" viewBox="0 0 24 24" fill="none" xmlns="http://www.w3.org/2000/svg">
<path d="M12.001 11.6145C12.4857 11.6145 12.9505 11.4421 13.2933 11.1352C13.636 10.8284 13.8286 10.4122 13.8286 9.97816C13.8286 9.54417 13.636 9.12795 13.2933 8.82108C12.9505 8.5142 12.4857 8.3418 12.001 8.3418C11.5163 8.3418 11.0515 8.5142 10.7087 8.82108C10.366 9.12795 10.1734 9.54417 10.1734 9.97816C10.1734 10.4122 10.366 10.8284 10.7087 11.1352C11.0515 11.4421 11.5163 11.6145 12.001 11.6145ZM13.2194 20.3418L13.8286 17.0691H15.0469V15.4327C15.0469 14.7094 14.726 14.0157 14.1548 13.5042C13.5836 12.9928 12.8088 12.7054 12.001 12.7054C11.1932 12.7054 10.4184 12.9928 9.84721 13.5042C9.27599 14.0157 8.95508 14.7094 8.95508 15.4327V17.0691H10.1734L10.7826 20.3418H13.2194Z" stroke="#ffffff" stroke-width="1.5" stroke-linecap="round" stroke-linejoin="round"/>
<path d="M18.8507 9.5366L17.1374 8.18566V3.71957H13.8884V5.62206L11.0004 3.3418L3.15012 9.5366C2.9884 9.69375 2.8902 9.9106 2.87793 10.141V19.6021C2.87812 19.7981 2.95255 19.986 3.08491 20.1247C3.21727 20.2633 3.39676 20.3414 3.58404 20.3418H18.4168C18.604 20.3414 18.7835 20.2633 18.9159 20.1247C19.0482 19.986 19.1227 19.7981 19.1229 19.6021V10.1418C19.1102 9.91086 19.0126 9.694 18.8507 9.5366Z" stroke="#ffffff" stroke-width="1.21837" stroke-linecap="round" stroke-linejoin="round"/>
</svg>
