<svg width="24" height="25" viewBox="0 0 24 25" fill="none" xmlns="http://www.w3.org/2000/svg">
<path d="M2.3999 5.58164C2.3999 4.94512 2.65276 4.33467 3.10285 3.88458C3.55293 3.4345 4.16338 3.18164 4.7999 3.18164H11.9999C12.6364 3.18164 13.2469 3.4345 13.697 3.88458C14.147 4.33467 14.3999 4.94512 14.3999 5.58164V6.78164H19.1999C19.8364 6.78164 20.4469 7.0345 20.897 7.48458C21.347 7.93467 21.5999 8.54512 21.5999 9.18164V21.1816C21.5999 21.4999 21.4735 21.8051 21.2484 22.0302C21.0234 22.2552 20.7182 22.3816 20.3999 22.3816H3.5999C3.28164 22.3816 2.97642 22.2552 2.75137 22.0302C2.52633 21.8051 2.3999 21.4999 2.3999 21.1816V5.58164ZM14.3999 21.1816H16.7999V18.7816H14.3999V21.1816ZM17.9999 21.1816H20.3999V9.18164C20.3999 8.86338 20.2735 8.55816 20.0484 8.33311C19.8234 8.10807 19.5182 7.98164 19.1999 7.98164H11.9999C11.6816 7.98164 11.3764 8.10807 11.1514 8.33311C10.9263 8.55816 10.7999 8.86338 10.7999 9.18164V21.1816H13.1999V18.7816C13.1999 18.4634 13.3263 18.1582 13.5514 17.9331C13.7764 17.7081 14.0816 17.5816 14.3999 17.5816H16.7999C17.1182 17.5816 17.4234 17.7081 17.6484 17.9331C17.8735 18.1582 17.9999 18.4634 17.9999 18.7816V21.1816ZM13.1999 5.58164C13.1999 5.26338 13.0735 4.95816 12.8484 4.73311C12.6234 4.50807 12.3182 4.38164 11.9999 4.38164H4.7999C4.48164 4.38164 4.17642 4.50807 3.95137 4.73311C3.72633 4.95816 3.5999 5.26338 3.5999 5.58164V21.1816H9.5999V9.18164C9.5999 8.54512 9.85276 7.93467 10.3028 7.48458C10.7529 7.0345 11.3634 6.78164 11.9999 6.78164H13.1999V5.58164ZM14.3999 11.2816C14.3999 11.5203 14.3051 11.7493 14.1363 11.918C13.9675 12.0868 13.7386 12.1816 13.4999 12.1816C13.2612 12.1816 13.0323 12.0868 12.8635 11.918C12.6947 11.7493 12.5999 11.5203 12.5999 11.2816C12.5999 11.0429 12.6947 10.814 12.8635 10.6452C13.0323 10.4765 13.2612 10.3816 13.4999 10.3816C13.7386 10.3816 13.9675 10.4765 14.1363 10.6452C14.3051 10.814 14.3999 11.0429 14.3999 11.2816ZM6.2999 12.1816C6.5386 12.1816 6.76752 12.0868 6.9363 11.918C7.10508 11.7493 7.1999 11.5203 7.1999 11.2816C7.1999 11.0429 7.10508 10.814 6.9363 10.6452C6.76752 10.4765 6.5386 10.3816 6.2999 10.3816C6.06121 10.3816 5.83229 10.4765 5.66351 10.6452C5.49472 10.814 5.3999 11.0429 5.3999 11.2816C5.3999 11.5203 5.49472 11.7493 5.66351 11.918C5.83229 12.0868 6.06121 12.1816 6.2999 12.1816ZM7.1999 7.68164C7.1999 7.92034 7.10508 8.14925 6.9363 8.31804C6.76752 8.48682 6.5386 8.58164 6.2999 8.58164C6.06121 8.58164 5.83229 8.48682 5.66351 8.31804C5.49472 8.14925 5.3999 7.92034 5.3999 7.68164C5.3999 7.44295 5.49472 7.21403 5.66351 7.04524C5.83229 6.87646 6.06121 6.78164 6.2999 6.78164C6.5386 6.78164 6.76752 6.87646 6.9363 7.04524C7.10508 7.21403 7.1999 7.44295 7.1999 7.68164ZM13.4999 15.7816C13.6181 15.7816 13.7351 15.7584 13.8443 15.7131C13.9535 15.6679 14.0527 15.6016 14.1363 15.518C14.2199 15.4345 14.2862 15.3352 14.3314 15.2261C14.3766 15.1169 14.3999 14.9998 14.3999 14.8816C14.3999 14.7635 14.3766 14.6464 14.3314 14.5372C14.2862 14.428 14.2199 14.3288 14.1363 14.2452C14.0527 14.1617 13.9535 14.0954 13.8443 14.0501C13.7351 14.0049 13.6181 13.9816 13.4999 13.9816C13.2612 13.9816 13.0323 14.0765 12.8635 14.2452C12.6947 14.414 12.5999 14.6429 12.5999 14.8816C12.5999 15.1203 12.6947 15.3493 12.8635 15.518C13.0323 15.6868 13.2612 15.7816 13.4999 15.7816ZM7.1999 18.4816C7.1999 18.7203 7.10508 18.9493 6.9363 19.118C6.76752 19.2868 6.5386 19.3816 6.2999 19.3816C6.06121 19.3816 5.83229 19.2868 5.66351 19.118C5.49472 18.9493 5.3999 18.7203 5.3999 18.4816C5.3999 18.2429 5.49472 18.014 5.66351 17.8452C5.83229 17.6765 6.06121 17.5816 6.2999 17.5816C6.5386 17.5816 6.76752 17.6765 6.9363 17.8452C7.10508 18.014 7.1999 18.2429 7.1999 18.4816ZM6.2999 15.7816C6.41809 15.7816 6.53512 15.7584 6.64432 15.7131C6.75351 15.6679 6.85273 15.6016 6.9363 15.518C7.01987 15.4345 7.08616 15.3352 7.13139 15.2261C7.17662 15.1169 7.1999 14.9998 7.1999 14.8816C7.1999 14.7635 7.17662 14.6464 7.13139 14.5372C7.08616 14.428 7.01987 14.3288 6.9363 14.2452C6.85273 14.1617 6.75351 14.0954 6.64432 14.0501C6.53512 14.0049 6.41809 13.9816 6.2999 13.9816C6.06121 13.9816 5.83229 14.0765 5.66351 14.2452C5.49472 14.414 5.3999 14.6429 5.3999 14.8816C5.3999 15.1203 5.49472 15.3493 5.66351 15.518C5.83229 15.6868 6.06121 15.7816 6.2999 15.7816ZM18.5999 11.2816C18.5999 11.5203 18.5051 11.7493 18.3363 11.918C18.1675 12.0868 17.9386 12.1816 17.6999 12.1816C17.4612 12.1816 17.2323 12.0868 17.0635 11.918C16.8947 11.7493 16.7999 11.5203 16.7999 11.2816C16.7999 11.0429 16.8947 10.814 17.0635 10.6452C17.2323 10.4765 17.4612 10.3816 17.6999 10.3816C17.9386 10.3816 18.1675 10.4765 18.3363 10.6452C18.5051 10.814 18.5999 11.0429 18.5999 11.2816ZM17.6999 15.7816C17.8181 15.7816 17.9351 15.7584 18.0443 15.7131C18.1535 15.6679 18.2527 15.6016 18.3363 15.518C18.4199 15.4345 18.4862 15.3352 18.5314 15.2261C18.5766 15.1169 18.5999 14.9998 18.5999 14.8816C18.5999 14.7635 18.5766 14.6464 18.5314 14.5372C18.4862 14.428 18.4199 14.3288 18.3363 14.2452C18.2527 14.1617 18.1535 14.0954 18.0443 14.0501C17.9351 14.0049 17.8181 13.9816 17.6999 13.9816C17.4612 13.9816 17.2323 14.0765 17.0635 14.2452C16.8947 14.414 16.7999 14.6429 16.7999 14.8816C16.7999 15.1203 16.8947 15.3493 17.0635 15.518C17.2323 15.6868 17.4612 15.7816 17.6999 15.7816Z" fill="#ffffff"/>
</svg>
