<svg width="17" height="18" viewBox="0 0 17 18" fill="none" xmlns="http://www.w3.org/2000/svg">
<path d="M10.7998 2.70039V2.60039H10.6998H4.52582C4.52582 2.60039 4.52581 2.60039 4.5258 2.60039C3.98242 2.60029 3.4558 2.7885 3.03556 3.13298C2.61532 3.47747 2.32745 3.95694 2.22094 4.48979L2.05882 5.30039H1.4748C1.26926 5.30039 1.07214 5.38204 0.926797 5.52738C0.781456 5.67272 0.699805 5.86985 0.699805 6.07539C0.699805 6.28093 0.781456 6.47806 0.926797 6.6234C1.07214 6.76874 1.26926 6.85039 1.4748 6.85039H1.74904L1.68432 7.17687C1.40762 7.27066 1.16519 7.44606 0.989418 7.68064C0.801366 7.93161 0.699748 8.23678 0.699805 8.55039C0.699805 8.5504 0.699805 8.5504 0.699805 8.55041L0.699805 13.0504C0.699805 13.435 0.852572 13.8038 1.1245 14.0757C1.39643 14.3476 1.76524 14.5004 2.1498 14.5004H2.4998V15.3004C2.4998 15.5656 2.60516 15.82 2.7927 16.0075C2.98023 16.195 3.23459 16.3004 3.4998 16.3004C3.76502 16.3004 4.01938 16.195 4.20691 16.0075C4.39445 15.82 4.4998 15.5656 4.4998 15.3004V14.5004H11.4998V15.3004C11.4998 15.5656 11.6052 15.82 11.7927 16.0075C11.9802 16.195 12.2346 16.3004 12.4998 16.3004H12.5998V16.2004V13.5004V13.4004H12.4998H2.1498C2.05698 13.4004 1.96796 13.3635 1.90232 13.2979C1.83668 13.2322 1.7998 13.1432 1.7998 13.0504V8.55039C1.7998 8.45756 1.83668 8.36854 1.90232 8.3029C1.96796 8.23726 2.05698 8.20039 2.1498 8.20039H12.4998H12.5998V8.10039V7.20039V7.10039H12.4998H2.82079L3.29996 4.70541L3.29997 4.70539C3.35658 4.42213 3.50956 4.16722 3.73289 3.984C3.95621 3.80078 4.2361 3.70056 4.52497 3.70039H10.6998H10.7998V3.60039V2.70039ZM11.6609 0.961482C11.5578 1.06463 11.4998 1.20452 11.4998 1.35039V5.85039C11.4998 5.99626 11.5578 6.13615 11.6609 6.2393C11.764 6.34244 11.9039 6.40039 12.0498 6.40039H13.2998V16.6504C13.2998 16.7963 13.3578 16.9362 13.4609 17.0393C13.564 17.1424 13.7039 17.2004 13.8498 17.2004C13.9957 17.2004 14.1356 17.1424 14.2387 17.0393C14.3419 16.9362 14.3998 16.7963 14.3998 16.6504V6.40039H15.6498C15.7957 6.40039 15.9356 6.34244 16.0387 6.2393C16.1419 6.13615 16.1998 5.99626 16.1998 5.85039V1.35039C16.1998 1.20452 16.1419 1.06463 16.0387 0.961482C15.9356 0.858337 15.7957 0.800391 15.6498 0.800391H12.0498C11.9039 0.800391 11.764 0.858337 11.6609 0.961482ZM12.5998 10.8004C12.5998 10.5352 12.4944 10.2808 12.3069 10.0933C12.1194 9.90575 11.865 9.80039 11.5998 9.80039C11.3346 9.80039 11.0802 9.90575 10.8927 10.0933C10.7052 10.2808 10.5998 10.5352 10.5998 10.8004C10.5998 11.0656 10.7052 11.32 10.8927 11.5075C11.0802 11.695 11.3346 11.8004 11.5998 11.8004C11.865 11.8004 12.1194 11.695 12.3069 11.5075C12.4944 11.32 12.5998 11.0656 12.5998 10.8004ZM5.39981 10.8004C5.39981 10.5352 5.29445 10.2808 5.10691 10.0933C4.91938 9.90575 4.66502 9.80039 4.39981 9.80039C4.13459 9.80039 3.88023 9.90575 3.6927 10.0933C3.50516 10.2808 3.39981 10.5352 3.39981 10.8004C3.39981 11.0656 3.50516 11.32 3.6927 11.5075C3.88023 11.695 4.13459 11.8004 4.39981 11.8004C4.66502 11.8004 4.91938 11.695 5.10691 11.5075C5.29445 11.32 5.39981 11.0656 5.39981 10.8004Z" fill="#555555" stroke="#555555" stroke-width="0.2"/>
</svg>
