<svg width="25" height="24" viewBox="0 0 25 24" fill="none" xmlns="http://www.w3.org/2000/svg">
<path d="M7.21042 21C6.72308 21 6.31618 20.8368 5.98971 20.5103C5.66324 20.1838 5.5 19.7769 5.5 19.2896V7.7647C5.5 7.61403 5.55057 7.48813 5.6517 7.38699C5.75284 7.28586 5.87874 7.23529 6.02941 7.23529C6.1801 7.23529 6.30601 7.28586 6.40715 7.38699C6.50826 7.48813 6.55882 7.61403 6.55882 7.7647V19.2896C6.55882 19.4525 6.6267 19.6018 6.76246 19.7375C6.8982 19.8733 7.04752 19.9412 7.21042 19.9412H15.5588C15.7095 19.9412 15.8354 19.9917 15.9365 20.0929C16.0377 20.194 16.0882 20.3199 16.0882 20.4706C16.0882 20.6213 16.0377 20.7472 15.9365 20.8483C15.8354 20.9494 15.7095 21 15.5588 21H7.21042ZM10.3869 17.8235C9.89955 17.8235 9.49264 17.6603 9.16617 17.3338C8.8397 17.0073 8.67647 16.6004 8.67647 16.1131V4.71039C8.67647 4.22307 8.8397 3.81618 9.16617 3.48971C9.49264 3.16324 9.89955 3 10.3869 3H18.6131C19.1005 3 19.5074 3.16324 19.8338 3.48971C20.1603 3.81618 20.3235 4.22307 20.3235 4.71039V16.1131C20.3235 16.6004 20.1603 17.0073 19.8338 17.3338C19.5074 17.6603 19.1005 17.8235 18.6131 17.8235H10.3869ZM10.3869 16.7647H18.6131C18.776 16.7647 18.9253 16.6968 19.0611 16.5611C19.1968 16.4253 19.2647 16.276 19.2647 16.1131V4.71039C19.2647 4.54751 19.1968 4.39819 19.0611 4.26243C18.9253 4.12669 18.776 4.05882 18.6131 4.05882H10.3869C10.224 4.05882 10.0747 4.12669 9.93893 4.26243C9.80319 4.39819 9.73531 4.54751 9.73531 4.71039V16.1131C9.73531 16.276 9.80319 16.4253 9.93893 16.5611C10.0747 16.6968 10.224 16.7647 10.3869 16.7647Z" fill="white"/>
</svg>
