<svg width="24" height="24" viewBox="0 0 24 24" fill="none" xmlns="http://www.w3.org/2000/svg">
<path d="M6.71042 21C6.22308 21 5.81618 20.8368 5.48971 20.5103C5.16324 20.1838 5 19.7769 5 19.2896V7.7647C5 7.61403 5.05057 7.48813 5.1517 7.38699C5.25284 7.28586 5.37874 7.23529 5.52941 7.23529C5.6801 7.23529 5.80601 7.28586 5.90715 7.38699C6.00826 7.48813 6.05882 7.61403 6.05882 7.7647V19.2896C6.05882 19.4525 6.1267 19.6018 6.26246 19.7375C6.3982 19.8733 6.54752 19.9412 6.71042 19.9412H15.0588C15.2095 19.9412 15.3354 19.9917 15.4365 20.0929C15.5377 20.194 15.5882 20.3199 15.5882 20.4706C15.5882 20.6213 15.5377 20.7472 15.4365 20.8483C15.3354 20.9494 15.2095 21 15.0588 21H6.71042ZM9.88689 17.8235C9.39955 17.8235 8.99264 17.6603 8.66617 17.3338C8.3397 17.0073 8.17647 16.6004 8.17647 16.1131V4.71039C8.17647 4.22307 8.3397 3.81618 8.66617 3.48971C8.99264 3.16324 9.39955 3 9.88689 3H18.1131C18.6005 3 19.0074 3.16324 19.3338 3.48971C19.6603 3.81618 19.8235 4.22307 19.8235 4.71039V16.1131C19.8235 16.6004 19.6603 17.0073 19.3338 17.3338C19.0074 17.6603 18.6005 17.8235 18.1131 17.8235H9.88689ZM9.88689 16.7647H18.1131C18.276 16.7647 18.4253 16.6968 18.5611 16.5611C18.6968 16.4253 18.7647 16.276 18.7647 16.1131V4.71039C18.7647 4.54751 18.6968 4.39819 18.5611 4.26243C18.4253 4.12669 18.276 4.05882 18.1131 4.05882H9.88689C9.72399 4.05882 9.57467 4.12669 9.43893 4.26243C9.30319 4.39819 9.23531 4.54751 9.23531 4.71039V16.1131C9.23531 16.276 9.30319 16.4253 9.43893 16.5611C9.57467 16.6968 9.72399 16.7647 9.88689 16.7647Z" fill="#666666"/>
</svg>
