<svg width="22" height="22" viewBox="0 0 22 22" fill="none" xmlns="http://www.w3.org/2000/svg">
<mask id="mask0_3341_69706" style="mask-type:alpha" maskUnits="userSpaceOnUse" x="0" y="0" width="22" height="22">
<rect width="22" height="22" fill="#D9D9D9"/>
</mask>
<g mask="url(#mask0_3341_69706)">
<path d="M11.002 14.2788C12.0406 14.2788 12.9228 13.9153 13.6485 13.1882C14.3742 12.4611 14.737 11.5782 14.737 10.5396C14.737 9.5009 14.3735 8.61872 13.6464 7.89303C12.9193 7.16733 12.0365 6.80449 10.9978 6.80449C9.95912 6.80449 9.07694 7.16802 8.35125 7.89509C7.62555 8.62217 7.26271 9.50505 7.26271 10.5437C7.26271 11.5824 7.62624 12.4646 8.35331 13.1903C9.0804 13.916 9.96328 14.2788 11.002 14.2788ZM10.9999 13.0166C10.3124 13.0166 9.72799 12.776 9.24674 12.2948C8.76549 11.8135 8.52487 11.2291 8.52487 10.5416C8.52487 9.85414 8.76549 9.26977 9.24674 8.78852C9.72799 8.30727 10.3124 8.06664 10.9999 8.06664C11.6874 8.06664 12.2717 8.30727 12.753 8.78852C13.2342 9.26977 13.4749 9.85414 13.4749 10.5416C13.4749 11.2291 13.2342 11.8135 12.753 12.2948C12.2717 12.776 11.6874 13.0166 10.9999 13.0166ZM11.0011 16.9583C8.89314 16.9583 6.97243 16.3769 5.23898 15.214C3.50555 14.0511 2.22927 12.4937 1.41016 10.5416C2.22927 8.58962 3.50514 7.03217 5.23774 5.8693C6.97034 4.70644 8.89062 4.125 10.9986 4.125C13.1066 4.125 15.0273 4.70644 16.7607 5.8693C18.4942 7.03217 19.7705 8.58962 20.5896 10.5416C19.7705 12.4937 18.4946 14.0511 16.762 15.214C15.0294 16.3769 13.1091 16.9583 11.0011 16.9583ZM10.9999 15.5833C12.7263 15.5833 14.3113 15.1288 15.7551 14.2198C17.1988 13.3107 18.3026 12.0847 19.0665 10.5416C18.3026 8.99859 17.1988 7.77255 15.7551 6.86352C14.3113 5.95449 12.7263 5.49998 10.9999 5.49998C9.27348 5.49998 7.68841 5.95449 6.24466 6.86352C4.80091 7.77255 3.69709 8.99859 2.9332 10.5416C3.69709 12.0847 4.80091 13.3107 6.24466 14.2198C7.68841 15.1288 9.27348 15.5833 10.9999 15.5833Z" fill="#666666"/>
</g>
</svg>
