<svg width="25" height="25" viewBox="0 0 25 25" fill="none" xmlns="http://www.w3.org/2000/svg">
<g clip-path="url(#clip0_3749_34610)">
<path d="M23.4336 9.14062C23.4336 15.7031 13.7033 21.015 13.2889 21.2344C13.1797 21.2931 13.0576 21.3239 12.9336 21.3239C12.8096 21.3239 12.6875 21.2931 12.5783 21.2344C12.1639 21.015 2.43359 15.7031 2.43359 9.14062C2.43533 7.59959 3.04828 6.12216 4.13795 5.03249C5.22763 3.94281 6.70506 3.32986 8.24609 3.32812C10.182 3.32813 11.877 4.16062 12.9336 5.56781C13.9902 4.16062 15.6852 3.32812 17.6211 3.32812C19.1621 3.32986 20.6396 3.94281 21.7292 5.03249C22.8189 6.12216 23.4319 7.59959 23.4336 9.14062Z" fill="black" fill-opacity="0.16" stroke="white" stroke-width="1.5"/>
</g>
<defs>
<clipPath id="clip0_3749_34610">
<rect width="24" height="24" fill="white" transform="translate(0.933594 0.328125)"/>
</clipPath>
</defs>
</svg>
