<svg width="14" height="16" viewBox="0 0 14 16" fill="none" xmlns="http://www.w3.org/2000/svg">
<path d="M4.72188 7.08125C4.72188 7.31875 4.76772 7.55 4.85941 7.775C4.95109 8 5.08103 8.20625 5.24922 8.39375C5.27734 8.24375 5.33359 8.09675 5.41797 7.95275C5.50234 7.80875 5.60781 7.687 5.73438 7.5875L7 6.5L8.24453 7.60625C8.37109 7.70625 8.47656 7.825 8.56094 7.9625C8.64531 8.1 8.70156 8.24375 8.72969 8.39375C8.88438 8.20625 9.02134 8.00625 9.14059 7.79375C9.25984 7.58125 9.31975 7.35625 9.32031 7.11875C9.32031 6.88125 9.27813 6.653 9.19375 6.434C9.10938 6.215 8.98281 6.012 8.81406 5.825C8.65938 5.8875 8.50103 5.9375 8.33903 5.975C8.17703 6.0125 8.01194 6.03125 7.84375 6.03125C7.42188 6.03125 7.03516 5.925 6.68359 5.7125C6.33203 5.5 6.06484 5.21875 5.88203 4.86875C5.71328 5.01875 5.55859 5.178 5.41797 5.3465C5.27734 5.515 5.15416 5.69325 5.04841 5.88125C4.94322 6.06875 4.8625 6.2625 4.80625 6.4625C4.75 6.6625 4.72188 6.86875 4.72188 7.08125ZM7 8.075L6.64141 8.39375C6.58516 8.44375 6.54634 8.49375 6.52497 8.54375C6.50359 8.59375 6.49319 8.65 6.49375 8.7125C6.49375 8.8375 6.54297 8.9375 6.64141 9.0125C6.73984 9.0875 6.85938 9.125 7 9.125C7.14063 9.125 7.26016 9.0875 7.35859 9.0125C7.45703 8.9375 7.50625 8.8375 7.50625 8.7125C7.50625 8.65 7.49584 8.59375 7.47503 8.54375C7.45422 8.49375 7.41541 8.44375 7.35859 8.39375L7 8.075ZM7 2.75V4.175C7 4.3875 7.08438 4.56575 7.25313 4.70975C7.42188 4.85375 7.62578 4.9255 7.86484 4.925C8.01953 4.925 8.16016 4.8845 8.28672 4.8035C8.41328 4.7225 8.52578 4.6255 8.62422 4.5125L8.77188 4.325C9.34844 4.6125 9.79506 5.00325 10.1117 5.49725C10.4284 5.99125 10.5865 6.53175 10.5859 7.11875C10.5859 7.99375 10.2344 8.7345 9.53125 9.341C8.82813 9.9475 7.98438 10.2505 7 10.25C6.01563 10.25 5.17891 9.94375 4.48984 9.33125C3.80078 8.71875 3.45625 7.975 3.45625 7.1C3.45625 6.1375 3.80078 5.28125 4.48984 4.53125C5.17891 3.78125 6.01563 3.1875 7 2.75ZM1.9375 15.5C1.47344 15.5 1.07603 15.353 0.745282 15.059C0.414533 14.765 0.249439 14.412 0.250001 14V3.5C0.250001 2.675 0.58047 1.96875 1.24141 1.38125C1.90235 0.79375 2.69688 0.5 3.625 0.5H10.375C11.3031 0.5 12.0977 0.79375 12.7586 1.38125C13.4195 1.96875 13.75 2.675 13.75 3.5V14C13.75 14.4125 13.5846 14.7658 13.2539 15.0598C12.9231 15.3538 12.526 15.5005 12.0625 15.5H1.9375ZM1.9375 12.5V14H12.0625V12.5C11.6406 12.5 11.3031 12.625 11.05 12.875C10.7969 13.125 10.2906 13.25 9.53125 13.25C8.77188 13.25 8.27603 13.125 8.04372 12.875C7.81141 12.625 7.4635 12.5 7 12.5C6.53594 12.5 6.18775 12.625 5.95544 12.875C5.72313 13.125 5.22756 13.25 4.46875 13.25C3.70938 13.25 3.21353 13.125 2.98122 12.875C2.74891 12.625 2.401 12.5 1.9375 12.5ZM4.46875 11.75C4.93281 11.75 5.281 11.625 5.51331 11.375C5.74563 11.125 6.24119 11 7 11C7.75938 11 8.26563 11.125 8.51875 11.375C8.77188 11.625 9.10938 11.75 9.53125 11.75C9.95313 11.75 10.2906 11.625 10.5438 11.375C10.7969 11.125 11.3031 11 12.0625 11V3.5C12.0625 3.0875 11.8971 2.73425 11.5664 2.44025C11.2356 2.14625 10.8385 1.9995 10.375 2H3.625C3.16094 2 2.76353 2.147 2.43278 2.441C2.10203 2.735 1.93694 3.088 1.9375 3.5V11C2.69688 11 3.19272 11.125 3.42503 11.375C3.65734 11.625 4.00525 11.75 4.46875 11.75Z" fill="#555555"/>
</svg>
