<svg width="18" height="18" viewBox="0 0 18 18" fill="none" xmlns="http://www.w3.org/2000/svg">
<g clip-path="url(#clip0_3341_26543)">
<path d="M10.6875 14.6253V11.2503C10.6875 11.1011 10.6282 10.958 10.5227 10.8525C10.4173 10.747 10.2742 10.6878 10.125 10.6878H7.875C7.72582 10.6878 7.58274 10.747 7.47725 10.8525C7.37176 10.958 7.3125 11.1011 7.3125 11.2503V14.6253C7.3125 14.7744 7.25324 14.9175 7.14775 15.023C7.04226 15.1285 6.89918 15.1878 6.75 15.1878H3.375C3.22582 15.1878 3.08274 15.1285 2.97725 15.023C2.87176 14.9175 2.8125 14.7744 2.8125 14.6253V8.12417C2.81251 8.04578 2.8289 7.96826 2.86062 7.89658C2.89235 7.8249 2.9387 7.76064 2.99672 7.70792L8.62172 2.39652C8.72529 2.30224 8.8603 2.25 9.00035 2.25C9.1404 2.25 9.27541 2.30224 9.37898 2.39652L15.004 7.70792C15.062 7.76064 15.1084 7.8249 15.1401 7.89658C15.1718 7.96826 15.1882 8.04578 15.1882 8.12417V14.6253C15.1882 14.7744 15.1289 14.9175 15.0234 15.023C14.918 15.1285 14.7749 15.1878 14.6257 15.1878H11.25C11.1008 15.1878 10.9577 15.1285 10.8523 15.023C10.7468 14.9175 10.6875 14.7744 10.6875 14.6253Z" stroke="#555555" stroke-width="1.125" stroke-linecap="round" stroke-linejoin="round"/>
</g>
<defs>
<clipPath id="clip0_3341_26543">
<rect width="18" height="18" fill="white"/>
</clipPath>
</defs>
</svg>
