<svg width="21" height="22" viewBox="0 0 21 22" fill="none" xmlns="http://www.w3.org/2000/svg">
<path d="M16.8899 3.95394C16.6581 3.72209 16.3829 3.53818 16.08 3.41271C15.7771 3.28724 15.4525 3.22266 15.1246 3.22266C14.7968 3.22266 14.4721 3.28724 14.1692 3.41271C13.8663 3.53818 13.5911 3.72209 13.3593 3.95394L3.97107 13.3421C3.69172 13.6215 3.48855 13.9681 3.38252 14.3491L2.40034 17.8569C2.37765 17.9382 2.37698 18.0241 2.39841 18.1057C2.41983 18.1874 2.46258 18.2619 2.52228 18.3216C2.58198 18.3813 2.65647 18.424 2.73812 18.4454C2.81978 18.4669 2.90567 18.4662 2.98698 18.4435L6.49415 17.4613C6.87505 17.3547 7.22206 17.1518 7.50173 16.8721L15.2392 9.13531C15.4343 9.34612 15.5401 9.62429 15.5346 9.91145C15.529 10.1986 15.4125 10.4725 15.2094 10.6756L13.9504 11.9346C13.9036 11.9782 13.8661 12.0307 13.84 12.0891C13.814 12.1475 13.8 12.2106 13.7989 12.2745C13.7978 12.3385 13.8095 12.402 13.8335 12.4613C13.8574 12.5206 13.8931 12.5744 13.9383 12.6196C13.9835 12.6649 14.0374 12.7005 14.0967 12.7245C14.1559 12.7484 14.2195 12.7602 14.2834 12.759C14.3473 12.7579 14.4104 12.7439 14.4688 12.7179C14.5272 12.6919 14.5798 12.6543 14.6234 12.6076L15.8824 11.3492C16.2641 10.9675 16.481 10.4513 16.4865 9.91153C16.4921 9.37173 16.2859 8.85123 15.9122 8.46169L16.8899 7.48395C17.358 7.0158 17.6209 6.38093 17.6209 5.71894C17.6209 5.05696 17.358 4.42209 16.8899 3.95394ZM14.0329 4.62692C14.3225 4.33739 14.7153 4.17476 15.1248 4.17482C15.5344 4.17488 15.9271 4.33762 16.2166 4.62724C16.5062 4.91686 16.6688 5.30964 16.6687 5.71917C16.6687 6.1287 16.5059 6.52143 16.2163 6.81096L6.82874 16.1992C6.66484 16.3631 6.4615 16.482 6.23829 16.5445L3.54569 17.2982L4.29931 14.6062C4.36194 14.383 4.48087 14.1797 4.6447 14.0157L14.0329 4.62692Z" fill="#666666"/>
</svg>
