<svg width="16" height="18" viewBox="0 0 16 18" fill="none" xmlns="http://www.w3.org/2000/svg">
<path d="M6.44636 8.98848L4.85074 7.39286L3.98208 8.26152L6.44636 10.7258L11.3749 5.79723L10.5063 4.92857L6.44636 8.98848Z" fill="black"/>
<path d="M7.67851 17.25L3.87365 15.2213C2.78895 14.6442 1.88187 13.7827 1.24975 12.7291C0.617633 11.6755 0.284343 10.4697 0.285648 9.24107V1.23214C0.285975 0.905458 0.415894 0.592247 0.646895 0.361247C0.877896 0.130246 1.19111 0.000326195 1.51779 0H13.8392C14.1659 0.000326195 14.4791 0.130246 14.7101 0.361247C14.9411 0.592247 15.071 0.905458 15.0714 1.23214V9.24107C15.0727 10.4697 14.7394 11.6755 14.1073 12.7291C13.4751 13.7827 12.5681 14.6442 11.4834 15.2213L7.67851 17.25ZM1.51779 1.23214V9.24107C1.51677 10.2464 1.78954 11.233 2.30683 12.095C2.82412 12.957 3.5664 13.6619 4.45399 14.1339L7.67851 15.8534L10.903 14.1345C11.7907 13.6624 12.533 12.9575 13.0503 12.0953C13.5676 11.2332 13.8404 10.2465 13.8392 9.24107V1.23214H1.51779Z" fill="black"/>
</svg>
