<svg width="18" height="18" viewBox="0 0 18 18" fill="none" xmlns="http://www.w3.org/2000/svg">
<path fill-rule="evenodd" clip-rule="evenodd" d="M5.57625 0.9375H12.4237C12.8512 0.9375 13.2142 0.9375 13.5135 0.96825C13.833 1.00125 14.1285 1.07325 14.4075 1.24575C14.6857 1.41825 14.8822 1.65 15.0547 1.92075C15.216 2.17575 15.3787 2.49975 15.57 2.88225L15.582 2.907C15.5895 2.922 15.5962 2.93625 15.6022 2.952L16.6545 5.61225C16.7805 5.9295 16.9192 6.32475 16.9597 6.72825C17.001 7.14225 16.9447 7.6155 16.62 8.02575C16.3509 8.36748 15.9808 8.61553 15.5625 8.7345V15.9375H16.5C16.6492 15.9375 16.7923 15.9968 16.8977 16.1023C17.0032 16.2077 17.0625 16.3508 17.0625 16.5C17.0625 16.6492 17.0032 16.7923 16.8977 16.8977C16.7923 17.0032 16.6492 17.0625 16.5 17.0625H1.5C1.35082 17.0625 1.20774 17.0032 1.10225 16.8977C0.996763 16.7923 0.9375 16.6492 0.9375 16.5C0.9375 16.3508 0.996763 16.2077 1.10225 16.1023C1.20774 15.9968 1.35082 15.9375 1.5 15.9375H2.4375V8.7345C2.01927 8.61568 1.6492 8.36792 1.38 8.0265C1.056 7.6155 0.999 7.1415 1.04025 6.729C1.08075 6.324 1.22025 5.9295 1.34475 5.61225L2.39775 2.95125C2.40384 2.93596 2.41059 2.92095 2.418 2.90625L2.43 2.88225C2.62125 2.49975 2.78325 2.175 2.94525 1.92075C3.11775 1.65 3.31425 1.41825 3.5925 1.24575C3.8715 1.07325 4.167 1.00125 4.48575 0.96825C4.78575 0.9375 5.14875 0.9375 5.57625 0.9375ZM13.5 8.16525C13.7553 8.43641 14.0793 8.63338 14.4375 8.73525V15.9375H11.4375V13.851C11.4375 13.521 11.4375 13.236 11.4165 13.0035C11.394 12.756 11.3445 12.5115 11.2117 12.2812C11.0636 12.0246 10.8504 11.8114 10.5937 11.6632C10.3635 11.5305 10.119 11.481 9.87225 11.4585C9.63825 11.4375 9.354 11.4375 9.02475 11.4375H8.976C8.646 11.4375 8.361 11.4375 8.1285 11.4585C7.881 11.481 7.6365 11.5305 7.40625 11.6632C7.14955 11.8114 6.9364 12.0246 6.78825 12.2812C6.6555 12.5115 6.606 12.756 6.5835 13.0027C6.5625 13.2367 6.5625 13.521 6.5625 13.8502V15.9375H3.5625V8.7345C3.92065 8.63284 4.2446 8.43613 4.5 8.16525C4.69255 8.36989 4.92498 8.53289 5.18297 8.64421C5.44096 8.75554 5.71902 8.81281 6 8.8125C6.591 8.8125 7.12425 8.56425 7.5 8.16525C7.69255 8.36989 7.92498 8.53289 8.18297 8.64421C8.44096 8.75554 8.71902 8.81281 9 8.8125C9.28099 8.8129 9.55908 8.75566 9.81708 8.64434C10.0751 8.53301 10.3075 8.36996 10.5 8.16525C10.6925 8.36989 10.925 8.53289 11.183 8.64421C11.441 8.75554 11.719 8.81281 12 8.8125C12.281 8.8129 12.5591 8.75566 12.8171 8.64434C13.0751 8.53301 13.3075 8.36996 13.5 8.16525ZM7.6875 15.9375H10.3125V13.875C10.3125 13.5142 10.3125 13.281 10.296 13.1047C10.281 12.936 10.2547 12.8745 10.2367 12.8437C10.1874 12.7584 10.1166 12.6876 10.0312 12.6382C10.0012 12.6202 9.939 12.5947 9.77025 12.579C9.51382 12.5632 9.25687 12.5577 9 12.5625C8.63925 12.5625 8.406 12.5625 8.22975 12.579C8.061 12.594 7.9995 12.6202 7.96875 12.6382C7.88343 12.6876 7.81257 12.7584 7.76325 12.8437C7.74525 12.8737 7.719 12.936 7.704 13.1047C7.68825 13.281 7.6875 13.5142 7.6875 13.875V15.9375ZM5.0625 6.75C5.0625 6.99864 5.16127 7.2371 5.33709 7.41291C5.5129 7.58873 5.75136 7.6875 6 7.6875C6.24864 7.6875 6.4871 7.58873 6.66291 7.41291C6.83873 7.2371 6.9375 6.99864 6.9375 6.75C6.9375 6.60082 6.99676 6.45774 7.10225 6.35225C7.20774 6.24676 7.35082 6.1875 7.5 6.1875C7.64918 6.1875 7.79226 6.24676 7.89775 6.35225C8.00324 6.45774 8.0625 6.60082 8.0625 6.75C8.0625 6.99864 8.16127 7.2371 8.33709 7.41291C8.5129 7.58873 8.75136 7.6875 9 7.6875C9.24864 7.6875 9.4871 7.58873 9.66291 7.41291C9.83873 7.2371 9.9375 6.99864 9.9375 6.75C9.9375 6.60082 9.99676 6.45774 10.1023 6.35225C10.2077 6.24676 10.3508 6.1875 10.5 6.1875C10.6492 6.1875 10.7923 6.24676 10.8977 6.35225C11.0032 6.45774 11.0625 6.60082 11.0625 6.75C11.0625 6.99864 11.1613 7.2371 11.3371 7.41291C11.5129 7.58873 11.7514 7.6875 12 7.6875C12.2486 7.6875 12.4871 7.58873 12.6629 7.41291C12.8387 7.2371 12.9375 6.99864 12.9375 6.75C12.9375 6.60082 12.9968 6.45774 13.1023 6.35225C13.2077 6.24676 13.3508 6.1875 13.5 6.1875C13.6492 6.1875 13.7923 6.24676 13.8977 6.35225C14.0032 6.45774 14.0625 6.60082 14.0625 6.75C14.0626 6.94485 14.1233 7.13483 14.2364 7.29354C14.3494 7.45225 14.5091 7.5718 14.6932 7.63556C14.8773 7.69933 15.0767 7.70414 15.2637 7.64933C15.4507 7.59453 15.6159 7.48282 15.7365 7.32975C15.822 7.22175 15.864 7.07325 15.84 6.84075C15.816 6.59925 15.7267 6.32475 15.609 6.02625L14.565 3.38775C14.364 2.9865 14.2297 2.72025 14.1052 2.52525C13.9852 2.33625 13.8997 2.2545 13.8157 2.20275C13.7325 2.15025 13.6207 2.1105 13.398 2.08725C13.1625 2.06325 12.858 2.0625 12.396 2.0625H5.604C5.14125 2.0625 4.83675 2.0625 4.602 2.08725C4.37925 2.1105 4.2675 2.151 4.18425 2.20275C4.10025 2.2545 4.01475 2.33625 3.89475 2.52525C3.7695 2.72025 3.636 2.9865 3.435 3.38775L2.391 6.02625C2.27325 6.32475 2.184 6.59925 2.16 6.84075C2.13675 7.07325 2.178 7.22175 2.2635 7.32975C2.38406 7.48282 2.54931 7.59453 2.73629 7.64933C2.92327 7.70414 3.12268 7.69933 3.3068 7.63556C3.49092 7.5718 3.65059 7.45225 3.76363 7.29354C3.87666 7.13483 3.93743 6.94485 3.9375 6.75C3.9375 6.60082 3.99676 6.45774 4.10225 6.35225C4.20774 6.24676 4.35082 6.1875 4.5 6.1875C4.64918 6.1875 4.79226 6.24676 4.89775 6.35225C5.00324 6.45774 5.0625 6.60082 5.0625 6.75Z" fill="#ffffff"/>
</svg>
