<svg width="14" height="16" viewBox="0 0 14 16" fill="none" xmlns="http://www.w3.org/2000/svg">
<path d="M7.0002 0.125C2.80282 3.70813 0.700195 6.803 0.700195 9.4175C0.700195 13.3393 3.6927 15.875 7.0002 15.875C10.3077 15.875 13.3002 13.3393 13.3002 9.4175C13.3002 6.803 11.1976 3.70813 7.0002 0.125ZM7.0002 14.3C4.36207 14.3 2.2752 12.2761 2.2752 9.4175C2.2752 7.57475 3.81082 5.1335 7.0002 2.21975C10.1896 5.1335 11.7252 7.56688 11.7252 9.4175C11.7252 12.2761 9.63832 14.3 7.0002 14.3ZM3.71632 9.575C4.0077 9.575 4.24394 9.77975 4.29907 10.0633C4.62194 11.8115 6.09457 12.41 7.16557 12.3234C7.5042 12.3076 7.78769 12.5754 7.78769 12.914C7.78769 13.229 7.53569 13.4889 7.22069 13.5046C5.54332 13.607 3.58245 12.6463 3.13357 10.2601C3.11988 10.1757 3.1247 10.0893 3.14769 10.0069C3.17067 9.92452 3.21128 9.84811 3.26669 9.78296C3.32211 9.71781 3.39102 9.66547 3.46865 9.62956C3.54628 9.59365 3.63079 9.57504 3.71632 9.575Z" fill="#ffffff"/>
</svg>
