<svg width="16" height="14" viewBox="0 0 16 14" fill="none" xmlns="http://www.w3.org/2000/svg">
<path d="M15.2955 2.68162C13.1304 1.3342 10.5909 0.618757 7.99553 0.625041C5.4002 0.631325 2.86464 1.35906 0.706919 2.71694C0.655806 2.74941 0.611987 2.79104 0.577962 2.83945C0.543937 2.88787 0.520374 2.94211 0.508617 2.9991C0.484872 3.11419 0.51066 3.23345 0.580307 3.33064C0.649953 3.42783 0.757754 3.49499 0.879994 3.51734C1.00223 3.5397 1.1289 3.51542 1.23213 3.44985C3.23641 2.18998 5.59102 1.51502 8.00093 1.50952C10.4108 1.50402 12.7689 2.16824 14.7796 3.41894C14.8835 3.48104 15.0091 3.50224 15.1294 3.47795C15.2497 3.45366 15.355 3.38585 15.4227 3.28912C15.4903 3.19239 15.5149 3.07449 15.4911 2.96085C15.4673 2.84721 15.3971 2.74693 15.2955 2.68162Z" fill="black"/>
<path d="M8.02699 3.79423C6.04679 3.79191 4.11302 4.35876 2.48418 5.41898C2.41041 5.49316 2.36607 5.58902 2.35865 5.6904C2.35123 5.79177 2.38117 5.89246 2.44344 5.97546C2.5057 6.05846 2.59647 6.11871 2.70042 6.14602C2.80438 6.17334 2.91516 6.16605 3.01408 6.1254C4.48388 5.17912 6.22296 4.67282 8.00354 4.67282C9.78412 4.67282 11.5232 5.17912 12.993 6.1254C13.0956 6.18072 13.2165 6.19754 13.3317 6.17249C13.4469 6.14743 13.5477 6.08235 13.6141 5.99027C13.6805 5.89819 13.7075 5.78591 13.6897 5.67589C13.6719 5.56587 13.6107 5.46623 13.5182 5.39691C11.901 4.35415 9.98706 3.79553 8.02699 3.79423Z" fill="black"/>
<path d="M8.02699 6.96427C6.67651 6.96641 5.36209 7.3748 4.27551 8.12986C4.18385 8.20178 4.12476 8.30389 4.11026 8.41539C4.09577 8.5269 4.12697 8.63941 4.1975 8.73002C4.26803 8.82063 4.3726 8.88252 4.4899 8.90308C4.6072 8.92364 4.72841 8.90133 4.82885 8.84069C5.75236 8.19893 6.86839 7.84972 8.01619 7.84337C9.16398 7.83702 10.2843 8.17386 11.2157 8.80537C11.2643 8.84938 11.3223 8.88304 11.3858 8.90405C11.4494 8.92505 11.517 8.93292 11.5841 8.9271C11.6512 8.92128 11.7162 8.90192 11.7746 8.87034C11.8331 8.83876 11.8836 8.79569 11.9227 8.74407C11.9619 8.69245 11.9888 8.6335 12.0016 8.57122C12.0143 8.50894 12.0127 8.44479 11.9968 8.38316C11.9809 8.32152 11.9511 8.26383 11.9093 8.21403C11.8676 8.16422 11.815 8.12347 11.755 8.09454C10.6702 7.35678 9.36522 6.96114 8.02699 6.96427Z" fill="black"/>
<path d="M8.00354 9.84292C7.63255 9.84292 7.2699 9.94649 6.96144 10.1405C6.65297 10.3346 6.41255 10.6104 6.27058 10.9331C6.12861 11.2558 6.09147 11.6109 6.16384 11.9535C6.23622 12.2961 6.41487 12.6108 6.67719 12.8577C6.93952 13.1047 7.27374 13.2729 7.6376 13.3411C8.00146 13.4092 8.37861 13.3742 8.72135 13.2406C9.0641 13.1069 9.35705 12.8805 9.56316 12.5901C9.76927 12.2997 9.87928 11.9582 9.87928 11.609C9.87928 11.1406 9.68166 10.6914 9.32989 10.3602C8.97812 10.029 8.50102 9.84292 8.00354 9.84292ZM8.00354 12.492C7.81805 12.492 7.63672 12.4402 7.48249 12.3432C7.32826 12.2461 7.20805 12.1082 7.13706 11.9469C7.06608 11.7855 7.0475 11.608 7.08369 11.4367C7.11988 11.2654 7.2092 11.1081 7.34037 10.9846C7.47153 10.8611 7.63864 10.777 7.82057 10.7429C8.0025 10.7088 8.19107 10.7263 8.36245 10.7932C8.53382 10.86 8.6803 10.9732 8.78335 11.1184C8.8864 11.2636 8.94141 11.4343 8.94141 11.609C8.94141 11.8432 8.8426 12.0677 8.66671 12.2333C8.49083 12.3989 8.25228 12.492 8.00354 12.492Z" fill="black"/>
</svg>
